<svg xmlns="http://www.w3.org/2000/svg" width="64" height="64" viewBox="0 0 64 64">
<g transform="translate(12.04,2.00) scale(0.21818)">
<g transform="translate(0.000000,275.000000) scale(0.100000,-0.100000)"
fill="#14181F" stroke="none">
<path d="M83 2308 c-76 -20 -83 -97 -22 -214 164 -311 185 -360 218 -484 75
-291 137 -435 227 -527 125 -127 276 -148 528 -73 138 41 141 36 9 -16 -139
-55 -235 -71 -329 -55 -37 7 -76 17 -86 22 -24 13 -25 15 34 -96 28 -54 59
-123 68 -154 17 -55 19 -56 66 -68 162 -38 390 23 514 137 l38 35 -10 60 c-5
33 -8 101 -5 152 5 100 8 110 94 250 33 54 65 125 91 207 78 237 128 329 247
456 49 52 65 76 65 98 0 75 -119 107 -223 59 -66 -30 -130 -86 -148 -129 -13
-31 -12 -32 45 -85 31 -29 54 -53 51 -53 -15 0 -82 40 -99 59 -26 28 -30 27
-45 -14 -7 -19 -28 -56 -47 -80 -20 -27 -34 -57 -34 -73 0 -107 -44 -209 -99
-232 -35 -14 -93 -7 -111 15 -18 21 -30 19 -30 -6 0 -48 -65 -109 -115 -109
-54 0 51 -187 127 -226 17 -9 28 -18 25 -20 -9 -9 -81 33 -114 66 -37 36 -71
103 -80 153 -5 33 -73 116 -73 90 0 -6 -14 -25 -31 -42 -26 -27 -38 -31 -81
-31 -47 0 -55 3 -92 43 -25 25 -59 81 -86 139 -51 110 -59 115 -162 106 -35
-4 -45 -2 -34 4 9 5 42 12 72 15 30 3 57 9 59 14 3 4 -2 37 -10 74 -27 114
-11 106 28 -15 48 -144 120 -292 159 -325 64 -54 148 -19 148 61 0 19 -20 116
-45 216 -24 101 -50 209 -56 241 -10 54 -14 60 -47 74 -40 17 -103 11 -139
-12 -12 -8 -40 -41 -62 -72 -49 -73 -76 -102 -125 -139 -37 -27 -36 -24 22 45
34 41 62 78 62 83 0 14 -147 242 -186 289 -65 78 -113 103 -171 87z m197 -253
c-13 -15 -82 -55 -95 -55 -13 0 7 20 52 49 47 32 66 34 43 6z m1150 -506 c12
-23 20 -43 18 -45 -3 -2 -14 17 -26 41 -27 56 -20 60 8 4z"/>
<path d="M1079 2127 c-57 -38 -59 -49 -32 -225 41 -275 56 -336 94 -371 45
-42 108 -16 136 56 15 40 18 77 18 225 0 180 6 197 24 68 5 -40 12 -74 14 -77
3 -2 14 12 26 31 l22 35 -31 78 c-42 109 -83 171 -125 189 -51 21 -107 18
-146 -9z"/>
<path d="M814 2104 c-71 -37 -77 -82 -34 -269 76 -328 133 -436 217 -408 76
26 82 97 33 428 -27 186 -34 213 -55 234 -31 31 -115 39 -161 15z"/>
</g>
</g>
</svg>